<?xml version="1.0" standalone="no"?>
<!DOCTYPE svg PUBLIC "-//W3C//DTD SVG 20010904//EN"
 "http://www.w3.org/TR/2001/REC-SVG-20010904/DTD/svg10.dtd">
<svg version="1.0" xmlns="http://www.w3.org/2000/svg"
 width="16.000000pt" height="16.000000pt" viewBox="0 0 16.000000 16.000000"
 preserveAspectRatio="xMidYMid meet">
<metadata>
Created by potrace 1.11, written by Peter Selinger 2001-2013
</metadata>
<g transform="translate(0.000000,16.000000) scale(0.001754,-0.001754)"
fill="#000000" stroke="none">
<path d="M329 7126 c-151 -43 -269 -159 -313 -307 -21 -70 -13 -194 19 -309
14 -52 30 -111 35 -130 14 -58 17 -71 50 -190 17 -63 33 -124 35 -135 2 -11
13 -56 25 -100 11 -44 23 -87 25 -95 2 -8 13 -50 25 -92 11 -43 23 -85 25 -95
6 -31 67 -257 70 -264 2 -3 7 -21 10 -40 3 -19 12 -56 20 -84 13 -45 71 -267
80 -305 2 -8 23 -85 45 -170 23 -85 45 -171 50 -190 4 -19 17 -69 28 -110 11
-41 44 -165 73 -275 28 -110 65 -249 81 -310 17 -60 34 -126 38 -145 5 -19 13
-53 19 -75 5 -22 15 -58 21 -80 6 -22 12 -47 14 -55 9 -37 67 -252 85 -320 12
-41 21 -76 21 -77 0 -2 0 -4 1 -5 0 -2 2 -10 4 -18 1 -8 17 -69 35 -135 17
-66 36 -136 40 -155 8 -32 45 -174 54 -210 18 -65 74 -192 90 -202 6 -4 7 -8
3 -8 -11 0 69 -108 122 -163 111 -116 293 -219 431 -243 14 -3 39 -8 55 -13
36 -9 234 -7 290 3 187 34 357 124 491 260 90 92 146 182 227 366 43 98 69
157 77 175 5 11 26 56 46 100 20 44 38 85 39 90 2 6 24 54 49 108 25 54 46
100 46 102 0 3 13 34 30 70 16 36 30 67 30 70 1 2 19 42 40 89 39 84 72 157
75 166 3 8 42 98 82 190 41 93 85 178 106 205 l24 29 32 -34 c33 -37 112 -185
176 -330 20 -47 45 -103 55 -125 9 -22 28 -65 40 -95 13 -30 31 -73 41 -95 50
-112 169 -387 169 -391 0 -2 27 -60 59 -127 53 -110 111 -209 160 -270 25 -32
155 -159 187 -183 46 -33 135 -81 179 -94 22 -7 46 -17 53 -23 6 -5 12 -7 12
-4 0 3 15 1 33 -4 145 -44 388 -19 547 56 147 69 288 201 395 368 52 82 121
235 142 312 1 6 16 62 33 125 17 63 32 122 34 130 2 8 9 35 16 60 7 25 14 53
15 62 2 10 6 22 9 26 3 5 7 19 9 33 3 13 19 76 36 139 51 193 62 234 66 250 1
8 8 33 14 55 6 22 10 42 11 45 0 3 7 29 16 59 9 30 17 63 19 73 6 31 102 311
125 363 67 156 157 304 238 390 153 164 352 270 542 290 52 5 381 5 615 0 88
-2 207 -4 264 -5 l104 -2 56 -57 c64 -65 109 -99 167 -129 46 -23 154 -61 199
-70 46 -8 245 -7 290 2 52 10 163 54 197 77 14 11 29 19 32 19 20 0 156 134
190 188 33 52 67 117 70 134 2 7 5 20 8 28 26 72 33 117 32 215 -1 117 -3 133
-35 235 -44 139 -169 290 -296 357 -58 31 -141 63 -178 69 -11 1 -40 6 -65 10
-66 11 -185 7 -250 -9 -47 -12 -77 -22 -99 -33 -14 -8 -31 -14 -37 -14 -6 0
-23 -9 -38 -21 -14 -11 -26 -17 -26 -14 0 15 -130 -102 -181 -162 -13 -16 -28
-18 -120 -16 -185 4 -762 3 -829 -1 -183 -12 -309 -26 -385 -43 -11 -2 -31 -6
-45 -9 -37 -7 -99 -24 -150 -41 -46 -14 -56 -18 -122 -47 -20 -9 -39 -16 -42
-16 -4 0 -25 -12 -49 -27 -23 -14 -44 -26 -47 -26 -12 2 -208 -123 -230 -147
-3 -3 -25 -21 -50 -41 -133 -108 -280 -285 -374 -450 -41 -73 -144 -291 -150
-319 -2 -8 -37 -104 -46 -125 -15 -36 -63 -190 -63 -202 0 -7 -3 -13 -7 -13
-4 0 -7 -6 -7 -12 0 -17 -81 -276 -111 -358 -3 -8 -6 -17 -7 -20 0 -3 -12 -36
-25 -75 -13 -38 -24 -72 -25 -75 -1 -7 -196 -608 -211 -650 -3 -9 -19 15 -41
60 -19 41 -53 113 -76 160 -22 47 -41 87 -42 90 -1 3 -23 49 -48 102 -26 53
-47 102 -47 108 0 5 -4 10 -10 10 -5 0 -10 4 -10 9 0 6 -24 61 -54 123 -29 62
-73 154 -96 203 -69 148 -209 425 -228 454 -10 14 -24 39 -32 56 -37 73 -175
265 -192 265 -6 0 -9 3 -5 6 3 3 -20 31 -51 61 -164 158 -349 225 -547 197
-87 -12 -208 -64 -274 -118 -39 -31 -171 -164 -171 -171 0 -4 -7 -13 -16 -22
-21 -21 -126 -179 -149 -223 -10 -19 -21 -37 -24 -40 -3 -3 -17 -25 -30 -50
-14 -25 -29 -48 -35 -52 -6 -4 -8 -8 -4 -8 7 0 -6 -25 -62 -120 -5 -8 -35 -62
-67 -119 -32 -58 -67 -121 -78 -140 -11 -20 -38 -67 -59 -106 -22 -38 -48 -86
-59 -105 -11 -19 -31 -55 -45 -80 -13 -25 -46 -84 -73 -131 -27 -48 -49 -89
-49 -92 0 -3 -17 -34 -39 -68 -21 -35 -56 -98 -78 -139 -60 -110 -77 -140 -83
-140 -5 0 -42 112 -45 135 -1 6 -8 30 -15 55 -7 25 -15 50 -16 55 -2 6 -10 35
-19 65 -9 30 -20 69 -25 85 -4 17 -25 86 -45 155 -20 69 -38 134 -41 146 -2
11 -13 50 -25 85 -11 35 -22 73 -25 84 -4 22 -26 96 -55 190 -10 33 -20 71
-23 85 -2 14 -14 54 -26 90 -12 36 -23 72 -24 80 -1 8 -5 22 -8 30 -9 24 -55
188 -64 229 -3 13 -9 31 -13 40 -5 9 -11 30 -14 48 -3 17 -8 36 -11 42 -4 6
-18 50 -31 98 -26 96 -58 209 -74 261 -5 18 -11 36 -12 40 -1 4 -3 12 -5 17
-6 18 -106 370 -109 385 -2 8 -4 16 -5 18 -2 1 -4 7 -5 12 -1 6 -3 11 -5 13
-1 1 -3 9 -5 18 -1 8 -26 96 -54 195 -62 216 -70 247 -71 257 0 4 -7 23 -15
43 -8 20 -17 46 -19 58 -14 72 -161 558 -179 593 -55 106 -138 178 -252 218
-71 25 -179 30 -246 11z"/>
</g>
</svg>
