<?xml version="1.0" encoding="UTF-8"?>
<svg width="28px" height="27px" viewBox="0 0 28 27" version="1.1" xmlns="http://www.w3.org/2000/svg" xmlns:xlink="http://www.w3.org/1999/xlink">
    <!-- Generator: Sketch 43.1 (39012) - http://www.bohemiancoding.com/sketch -->
    <title>Page 1</title>
    <desc>Created with Sketch.</desc>
    <defs>
        <polygon id="path-1" points="13.1372218 0 0.116908772 3.41060513e-15 0.116908772 12.7368021 13.1372218 12.7368021 13.1372218 1.02318154e-14"></polygon>
    </defs>
    <g id="Way" stroke="none" stroke-width="1" fill="none" fill-rule="evenodd">
        <g id="Home-(Concept-2)" transform="translate(-20.000000, -602.000000)">
            <g id="left-Icons" transform="translate(18.000000, 489.000000)">
                <g id="Page-1" transform="translate(2.000000, 113.000000)">
                    <g id="Group-3" transform="translate(14.382119, 0.000000)">
                        <mask id="mask-2" fill="white">
                            <use xlink:href="#path-1"></use>
                        </mask>
                        <g id="Clip-2"></g>
                        <path d="M12.346373,-4.79999999e-05 C12.9482094,0.290832 13.1416919,0.763872 13.1371437,1.412472 C13.1145257,4.671072 13.1287849,7.929912 13.1254659,11.188752 C13.1246055,12.196992 12.7957835,12.516072 11.77158,12.525432 C11.4030535,12.528792 11.0340354,12.535392 10.6657548,12.522672 C9.89207058,12.496272 9.51076004,12.119472 9.50719524,11.356272 C9.49945103,9.660672 9.50485969,7.965192 9.50485969,6.115272 C9.25692179,6.346392 9.10228328,6.484872 8.95403682,6.629472 C7.05633467,8.480952 5.1605993,10.334112 3.26215959,12.184752 C2.50433256,12.923472 1.99604143,12.919992 1.23083895,12.179232 C1.01277161,11.968032 0.793597948,11.757672 0.581553887,11.540952 C-0.0389669377,10.906752 -0.0409337232,10.343352 0.593477524,9.722952 C2.45983404,7.898352 4.33184506,6.079152 6.20274976,4.258872 C6.39106947,4.075632 6.5871334,3.899832 6.8580581,3.647472 C6.61516009,3.620232 6.46838873,3.589632 6.32149444,3.589272 C4.78555789,3.585792 3.24962134,3.590352 1.71356186,3.586032 C0.703002891,3.583032 0.304851752,3.188352 0.299934788,2.202192 C0.298705547,1.942272 0.317144161,1.681032 0.29636999,1.422672 C0.24203754,0.745272 0.509028671,0.264072 1.16028052,-4.79999999e-05 L12.346373,-4.79999999e-05 Z" id="Fill-1" fill="#FFFFFF" mask="url(#mask-2)"></path>
                    </g>
                    <path d="M0.791508238,26.999952 C0.191638662,26.709072 -0.00467111555,26.239992 0.000122924094,25.589592 C0.0239701982,22.331232 0.00909638292,19.072392 0.0122924094,15.813912 C0.0132758021,14.803512 0.340622663,14.484192 1.3632282,14.474592 C1.73187755,14.471112 2.10089568,14.464872 2.46905334,14.477232 C3.24544192,14.503272 3.62687538,14.877912 3.63044018,15.640752 C3.63843025,17.336592 3.63302159,19.032432 3.63302159,20.880792 C3.87960732,20.652552 4.03486045,20.515392 4.18286106,20.370912 C6.07982567,18.518952 7.97457765,16.665072 9.87215688,14.813952 C10.6374823,14.067432 11.1234012,14.070912 11.9005273,14.818272 C12.1047043,15.014832 12.3080207,15.212112 12.5082641,15.412392 C13.1903699,16.094712 13.1945493,16.628232 12.4933902,17.316552 C10.790154,18.988512 9.0794194,20.653272 7.36868479,22.317912 C7.03543757,22.642272 6.68854578,22.953192 6.26187625,23.350512 C6.52259825,23.379792 6.66973839,23.410392 6.81700146,23.410632 C8.35293801,23.414232 9.88875163,23.409672 11.4246882,23.413992 C12.4350013,23.416992 12.8330295,23.811672 12.8378236,24.798072 C12.8390528,25.057872 12.8206142,25.319232 12.8413884,25.577472 C12.8958437,26.254872 12.6287297,26.735952 11.9776008,26.999952 L0.791508238,26.999952 Z" id="Fill-4" fill="#FFFFFF"></path>
                </g>
            </g>
        </g>
    </g>
</svg>