<?xml version="1.0" encoding="UTF-8"?>
<svg width="228px" height="129px" viewBox="0 0 228 129" version="1.1" xmlns="http://www.w3.org/2000/svg" xmlns:xlink="http://www.w3.org/1999/xlink">
    <!-- Generator: Sketch 43.1 (39012) - http://www.bohemiancoding.com/sketch -->
    <title>Group Copy</title>
    <desc>Created with Sketch.</desc>
    <defs></defs>
    <g id="Way" stroke="none" stroke-width="1" fill="none" fill-rule="evenodd">
        <g id="Group-Copy" transform="translate(3.000000, 3.000000)" stroke-width="6" stroke="#FFFFFF" fill="#FFFFFF">
            <g id="Page-1">
                <path d="M44.0046707,122.21354 C35.5357396,122.21354 28.1208193,116.479002 25.9730912,108.268006 L0.260271749,9.97162153 C-0.849185053,5.72987734 1.69113656,1.37393717 5.92327695,0.261736466 C6.58415764,0.0882016035 7.26292413,0 7.94043862,0 C11.5381693,0 14.6896491,2.43647966 15.6079066,5.92671751 L41.8599832,97.0730355 C42.1794238,98.2938748 43.2819051,99.1466696 44.541245,99.1466696 C45.876063,99.1466696 46.4877577,98.8250564 47.7011311,96.8175736 L63.3369063,68.821811 C66.5139628,62.9917208 69.2106064,58.468341 72.0308409,55.3687359 C75.0803715,52.0174335 78.1905351,50.4563368 81.8190294,50.4563368 C89.6878915,50.4563368 94.9513277,57.8493163 100.433507,68.9496316 L113.775785,96.8962738 C114.823178,98.4889223 115.308778,99.047891 116.512493,99.047891 C118.673814,99.047891 119.151544,97.2028281 119.170682,97.1243072 L119.178552,97.0925761 L125.323222,78.1288728 L125.329303,78.1122006 C126.424451,75.1411332 127.386887,72.0011919 128.317485,68.9648697 C132.447677,55.4893856 136.71845,41.5549665 154.1564,33.948116 C161.059607,30.9367124 170.124672,30.6873457 179.58716,30.6873457 C180.740258,30.6873457 181.919291,30.6918275 183.123006,30.6982813 L193.939986,30.9334855 C194.706214,30.9304379 195.438996,30.5312002 195.902238,29.86431 C198.507128,26.1150248 202.77808,23.8768195 207.327873,23.8768195 C209.139348,23.8768195 210.961912,24.2235306 212.744948,24.9076309 C216.214259,26.2387221 218.954007,29.0109774 220.261817,32.5134057 C221.973311,37.096483 221.430655,41.9280306 218.773003,45.7691028 C216.169544,49.5320127 211.890901,51.7786438 207.327873,51.7786438 C202.497452,51.7786438 198.148875,49.748752 195.695121,46.3486878 C195.119555,45.5512879 194.209704,45.0751426 193.261399,45.0751426 L183.097608,44.8395798 C181.211907,44.8243417 179.465179,44.7929692 177.924137,44.7653614 C176.140743,44.7336303 174.600596,44.7060225 173.16991,44.7060225 C168.479178,44.7060225 165.280479,44.9962632 161.815461,46.52778 C148.992766,52.3809962 145.146244,64.2288738 141.112994,80.3269213 L136.586274,97.5348391 C136.314768,98.9876557 134.994616,103.547069 132.042563,107.781105 C128.135587,113.384775 122.799176,116.34652 116.610507,116.34652 L116.524655,116.346341 C104.39897,116.294173 99.7643992,105.251583 97.5370793,99.9447865 C97.154323,99.0324736 96.8236143,98.2445751 96.5623026,97.7750629 L96.540482,97.7356232 L89.9114641,82.3756366 L89.6168849,81.7083879 C87.7100786,77.3809519 85.0987504,71.454593 81.9449455,71.454593 C79.0860776,71.454593 77.3579506,75.5884157 75.5284111,79.9647928 C75.1746298,80.8111338 74.8088649,81.6861582 74.4332629,82.5312443 L61.9412766,110.598178 C58.6706773,117.765634 51.7991279,122.21354 44.0046707,122.21354" id="Fill-1"></path>
            </g>
        </g>
    </g>
</svg>