<?xml version="1.0" encoding="UTF-8"?>
<svg width="134px" height="84px" viewBox="0 0 134 84" version="1.1" xmlns="http://www.w3.org/2000/svg" xmlns:xlink="http://www.w3.org/1999/xlink">
    <!-- Generator: Sketch 43.1 (39012) - http://www.bohemiancoding.com/sketch -->
    <title>Group 2</title>
    <desc>Created with Sketch.</desc>
    <defs>
        <path d="M125.640203,21.435445 C125.640203,20.4362157 125.455879,19.4179585 125.082757,18.4204582 C124.340437,16.4361005 122.785284,14.8655594 120.816046,14.1115927 C119.803971,13.7239963 118.76952,13.5275226 117.741219,13.5275226 C115.158925,13.5275226 112.734596,14.7955495 111.256198,16.9196595 C110.993038,17.2975347 110.576994,17.5237961 110.14205,17.5254906 L104.002558,17.3920704 C103.318897,17.3885031 102.649588,17.3858275 101.994721,17.3858275 C96.6242926,17.3858275 91.4791366,17.5271851 87.5611658,19.2332868 C77.663275,23.5428659 75.2392144,31.4372206 72.8949395,39.0716021 C72.3666598,40.7918842 71.8205508,42.5707606 71.1989351,44.2538526 L71.1953692,44.2633062 L67.7134119,54.9891833 L67.707974,55.0071094 L67.704319,55.0207546 C67.6747225,55.1326813 67.3812536,56.114604 66.1945408,56.114604 C65.511236,56.114604 65.2355963,55.7979986 64.6411701,54.8957178 L57.067942,39.0627728 C53.9562975,32.7741872 50.9687445,28.58581 46.502436,28.58581 C44.4428938,28.58581 42.6775337,29.4701647 40.9466731,31.368816 C39.3458767,33.1248611 37.8151491,35.687581 36.0119019,38.9905333 L27.1370517,54.8512147 C26.4484873,55.9883186 26.1012632,56.1705227 25.3435214,56.1705227 C24.628748,56.1705227 24.0030316,55.6874097 23.8216193,54.995783 L8.92093879,3.35824673 C8.39961243,1.3809346 6.6109852,0.000445923083 4.56882647,0.000445923083 C4.18425022,0.000445923083 3.7991391,0.0503893083 3.42392319,0.14875994 C2.26021007,0.453949698 1.28504095,1.1942712 0.677956046,2.23327198 C0.0708711449,3.27236195 -0.0954754669,4.48562947 0.209582467,5.64984546 L14.8042244,61.338147 C16.0233864,65.9899274 20.2320627,69.238923 25.0389984,69.238923 C27.1936595,69.238923 29.2817284,68.6272057 31.077309,67.4701245 C32.8789516,66.3091191 34.310727,64.6467179 35.2197498,62.6583468 L42.3102518,46.7574432 C42.5234001,46.2785218 42.7311105,45.7828337 42.9318675,45.3033772 C43.9703304,42.8239557 44.9512048,40.482146 46.5739312,40.482146 C48.3640739,40.482146 49.8462169,43.8396793 50.9285396,46.291186 L51.0956885,46.6692396 L54.8582777,55.3710718 L54.8707582,55.393368 C55.0190081,55.6594949 55.2067498,56.1059531 55.4239988,56.6228671 C56.6883579,59.6293697 59.3188808,65.8853138 66.201405,65.9149231 L66.250168,65.9150123 C69.7628807,65.9150123 72.7917975,64.2370037 75.0093957,61.0622989 C76.6850749,58.6635003 77.4342586,56.0800895 77.5885705,55.2570939 L80.1576718,45.5085018 C82.4469435,36.3883938 84.6303097,29.6761811 91.9083751,26.3601187 C93.8751162,25.4924416 95.6905764,25.3280744 98.3528354,25.3280744 C99.1650454,25.3280744 100.039301,25.3435925 101.051555,25.361697 C101.926435,25.3773043 102.917918,25.3949628 103.988117,25.4037029 L109.757206,25.5372123 C110.295559,25.5372123 110.811983,25.8069066 111.138614,26.2586266 C112.531254,28.184836 114.99962,29.3349608 117.741309,29.3349608 C120.33127,29.3349608 122.759788,28.062118 124.237652,25.9302489 C125.166543,24.590134 125.640202,23.0372374 125.640203,21.435445 L125.640203,21.4354424 L125.640203,21.435445 Z" id="path-1"></path>
    </defs>
    <g id="Way" stroke="none" stroke-width="1" fill="none" fill-rule="evenodd">
        <g id="Home-(Concept-2)" transform="translate(-28.000000, -32.000000)">
            <g id="Group-2" transform="translate(28.000000, 32.000000)">
                <g id="Page-1">
                    <polygon id="Fill-1" fill="#FFFFFF" points="15.372825 8.8447684 8.75096394 1.67700077 9.80939551 8.24749903"></polygon>
                    <polygon id="Fill-2" fill="#FFFFFF" points="53.0006603 31.5170854 59.2981187 38.3638776 55.6930507 36.8965231"></polygon>
                    <polygon id="Fill-3" fill="#FFFFFF" points="17.1711513 66.5000099 23.9329717 73.8354446 23.9329717 69.0397202"></polygon>
                    <polygon id="Fill-4" fill="#FFFFFF" points="59.886064 64.3651531 67.036383 71.9487886 66.61597 68.1201822"></polygon>
                    <polygon id="Fill-5" fill="#FFFFFF" points="124.328857 16.1609571 130.117113 22.4558749 125.320429 22.2277406"></polygon>
                    <polyline id="Fill-6" fill="#FFFFFF" points="119.06166 35.5494697 120.754901 33.0603271 113.300148 30.8991163"></polyline>
                    <g id="Group-11" transform="translate(6.418519, 7.017848)" fill="#FFFFFF">
                        <path d="M25.5595937,69.7696606 C20.752658,69.7696606 16.5439818,66.5207542 15.3247306,61.8689738 L0.730356121,6.18067229 C0.100538965,3.77741443 1.54247704,1.30967609 3.94451855,0.679586778 C4.31964531,0.581216146 4.70493473,0.531272761 5.08942184,0.531272761 C7.13149142,0.531272761 8.9202078,1.91176144 9.44153415,3.8888952 L24.3423038,55.5266098 C24.523627,56.2183257 25.1494325,56.7014387 25.8642059,56.7014387 C26.6218586,56.7014387 26.9691718,56.5192346 27.657647,55.3820415 L36.5326756,39.5213601 C38.3358336,36.2184079 39.8664721,33.6556879 41.4672685,31.8996428 C43.1980399,30.0009915 44.9634892,29.1166369 47.0231205,29.1166369 C51.489429,29.1166369 54.4769821,33.305014 57.5886265,39.5936889 L65.1617655,55.4265447 C65.7561916,56.3288254 66.0318313,56.6454308 66.7151362,56.6454308 C67.901849,56.6454308 68.1954071,55.6635082 68.2250036,55.5515815 L68.2285694,55.5379362 L68.2340073,55.5200993 L71.7159646,44.7940439 L71.7195304,44.7845903 C72.341057,43.101409 72.8873443,41.3225327 73.415624,39.6021614 C75.7598989,31.9678691 78.1840486,24.0736035 88.0817612,19.7641137 C91.9999103,18.058012 97.1439074,17.9167435 102.513087,17.9167435 C103.168757,17.9167435 103.838868,17.9193299 104.523243,17.9228973 L110.662645,18.0562283 C111.0975,18.054623 111.513634,17.8284508 111.776793,17.4504864 C113.255192,15.3264655 115.67952,14.0583495 118.261993,14.0583495 C119.290204,14.0583495 120.324655,14.2548232 121.336731,14.6424195 C123.305879,15.3962971 124.861033,16.9668382 125.603352,18.9511959 C126.574688,21.5477168 126.266688,24.2849711 124.758247,26.4610757 C123.280472,28.593034 120.851865,29.8657876 118.261993,29.8657876 C115.520216,29.8657876 113.05185,28.715752 111.659209,26.7894535 C111.332578,26.3376442 110.816244,26.0679499 110.277891,26.0679499 L104.508801,25.9345297 C103.438602,25.9258788 102.44703,25.9081311 101.572329,25.8925238 C100.559897,25.8744193 99.6856408,25.8589012 98.8734307,25.8589012 C96.2112609,25.8589012 94.3958007,26.0232684 92.4290596,26.8909456 C85.150905,30.207008 82.967628,36.9192206 80.6783563,46.0393287 L78.1091659,55.7880099 C77.9549432,56.6109164 77.2056702,59.1944163 75.529902,61.5931258 C73.3123037,64.7678306 70.2832977,66.4458391 66.7706742,66.4458391 L66.7220004,66.4457499 C59.8393871,66.4161407 57.208775,60.1600182 55.9446833,57.1535156 C55.7273452,56.6366907 55.5396926,56.1903217 55.3913535,55.924284 L55.3789622,55.9019878 L51.6162839,47.2000664 L51.449135,46.8220129 C50.3669014,44.3705061 48.8846693,41.0129729 47.0945266,41.0129729 C45.4717111,41.0129729 44.4909257,43.3547825 43.452552,45.834204 C43.2517059,46.3136605 43.0440846,46.8094378 42.8308472,47.28827 L35.7404343,63.1892629 C34.8314115,65.1776339 33.399547,66.839946 31.5979044,68.0009513 C29.8023238,69.1580325 27.7142548,69.7696606 25.5595937,69.7696606" id="Fill-7"></path>
                        <path d="M5.08959121,0.0235447388 L5.08959121,0.0235447388 C4.66168996,0.0234555541 4.23316469,0.0789283856 3.81587182,0.188447095 C2.52111395,0.52797293 1.43593854,1.35177123 0.76038944,2.50778223 C0.0848403379,3.6639716 -0.100226954,5.01404832 0.239330519,6.3093657 L14.8338833,61.9977564 C16.1115252,66.8727659 20.5220282,70.2774778 25.5595848,70.2774778 C27.81195,70.2774778 29.9950487,69.6378457 31.8727329,68.4278781 C33.7561224,67.2142538 35.2525288,65.477205 36.1999735,63.4047329 L36.2020238,63.4003628 L36.2038959,63.3959928 L43.2943088,47.4954459 C43.5100423,47.0108167 43.7187333,46.512453 43.9206492,46.0304102 C44.8492841,43.8133698 45.8093875,41.5207009 47.0945176,41.5207009 C47.6631806,41.5207009 48.3059239,42.0542033 49.0050967,43.1064925 C49.7470597,44.2232623 50.4046904,45.7130913 50.9849423,47.0274942 C51.0413718,47.155385 51.0971773,47.2816704 51.1521804,47.4059937 L54.9029132,56.0801787 L54.9231493,56.1270006 L54.9480211,56.1715038 C55.0826317,56.4131049 55.265292,56.8475231 55.4768357,57.3505244 C56.1257301,58.8939534 57.1065155,61.2262203 58.81295,63.2161966 C60.9279411,65.6826864 63.588328,66.9401003 66.719852,66.9535672 L66.7707544,66.9536563 C70.4564997,66.9536563 73.6293875,65.2006435 75.946027,61.884046 C77.6597715,59.4307556 78.4360557,56.7763538 78.6044527,55.9003825 L81.1676703,46.1746217 L81.1691858,46.1687355 L81.1707013,46.1630277 C82.2538263,41.8477409 83.289704,38.011643 85.0006849,34.7654121 C86.8604508,31.2371795 89.2877206,28.8817246 92.6389006,27.3532786 C94.5213987,26.5240401 96.2830146,26.3666292 98.873511,26.3666292 C99.6812637,26.3666292 100.55338,26.3822365 101.563138,26.4002518 C102.436948,26.4158591 103.427004,26.4335177 104.504246,26.4424361 L110.254258,26.5755888 L110.266114,26.5758563 L110.277793,26.5758563 C110.6539,26.5758563 111.016457,26.7668898 111.247969,27.0870625 C112.735729,29.1449084 115.357783,30.3736048 118.261984,30.3736048 C121.018381,30.3736048 123.602816,29.0191581 125.175353,26.7504798 C126.779983,24.4355147 127.109288,21.5279178 126.078759,18.7732726 C125.285448,16.6526408 123.623052,14.9741863 121.518134,14.1681357 C120.447936,13.7582432 119.352419,13.5505323 118.261984,13.5505323 C115.51361,13.5505323 112.933544,14.8999847 111.360204,17.1602796 C111.192966,17.4007213 110.934175,17.5452004 110.666826,17.5484111 L104.542489,17.4153476 L104.53411,17.4151693 L104.525819,17.4150801 C103.708884,17.4107992 103.088873,17.4089263 102.515307,17.4089263 C97.0892519,17.4089263 91.8868641,17.5534054 87.8792123,19.2983916 C83.3423001,21.2738309 79.9368302,24.185887 77.4681074,28.2008892 C75.3055123,31.7183305 74.0980285,35.6505694 72.9303038,39.4532231 C72.4041635,41.1668163 71.8600158,42.9387363 71.2433031,44.608629 L71.2363497,44.6276254 L71.2301095,44.6468892 L67.7512723,55.3632236 L67.7340671,55.416556 L67.7318384,55.4293986 C67.6763004,55.6116919 67.4516523,56.1376136 66.7151272,56.1376136 C66.3234193,56.1376136 66.1887196,56.0593095 65.6046343,55.1757575 L58.0495029,39.3805376 L58.046561,39.3743839 L58.0436192,39.3684085 C56.2216513,35.6862433 54.6382384,33.1940683 53.0607983,31.5252458 C51.2058464,29.5628275 49.2308146,28.6088197 47.0231116,28.6088197 C44.8105947,28.6088197 42.9261354,29.5457041 41.092222,31.5574414 C39.4581741,33.3500522 37.9095281,35.9400627 36.0875602,39.2771727 L27.2188611,55.1266168 C26.6033073,56.1418053 26.3889109,56.1936215 25.8641079,56.1936215 C25.3800446,56.1936215 24.9561549,55.866314 24.8333116,55.3978272 L24.8300132,55.3856981 L24.8266256,55.3737474 L9.9309373,3.75378051 C9.34908074,1.55689585 7.36014223,0.023723108 5.08959121,0.0235447388 M5.08941292,1.03917915 C6.862083,1.03935752 8.48151095,2.22827764 8.95220233,4.0240099 L23.8512782,55.6553924 C24.0910812,56.5703374 24.9188918,57.209256 25.8641079,57.209256 C26.9110396,57.209256 27.3877038,56.8097089 28.0963261,55.6376446 L36.9755445,39.7693826 C40.549768,33.2225182 43.0303472,29.6244541 47.0231116,29.6244541 C50.9729076,29.6244541 53.836815,33.1558973 57.133705,39.8189692 L64.7189679,55.6768859 C65.3381767,56.6190322 65.7376403,57.153248 66.7151272,57.153248 C68.3538999,57.153248 68.7169028,55.6768859 68.7169028,55.6768859 L72.1956508,44.9605515 C75.5155405,35.9710097 76.348165,25.4268909 88.2842922,20.2296574 C91.9495338,18.6337879 96.6594786,18.4244716 102.515307,18.4245607 C103.169283,18.4245607 103.837879,18.4271471 104.520559,18.4308037 L110.657911,18.5640455 C111.275337,18.5640455 111.840524,18.2475293 112.193275,17.7406039 C113.528683,15.8221536 115.747797,14.5661667 118.261984,14.5661667 C119.195611,14.5661667 120.170513,14.7395416 121.155221,15.1166141 C122.987708,15.8183187 124.440165,17.2908459 125.127927,19.1292976 C127.098769,24.3970761 123.259336,29.3579704 118.261984,29.3579704 C115.795847,29.3579704 113.41315,28.3489357 112.07052,26.4918444 C111.652247,25.913393 110.991496,25.5601327 110.277793,25.5601327 L104.520559,25.4268909 C102.240559,25.4081621 100.419304,25.3509948 98.873511,25.3509948 C96.1289702,25.3509948 94.2532472,25.5311477 92.2242821,26.4262937 C84.4734749,29.957737 82.3303137,37.3729027 80.1859935,45.9156296 L77.6134156,55.6768859 C77.3735234,56.9963723 74.8021935,65.9380219 66.7707544,65.9380219 C66.7555104,65.9380219 66.7395533,65.9380219 66.7242201,65.9379327 C58.9817036,65.9046669 56.8838285,57.5593056 55.834579,55.6768859 L52.0821525,46.99842 C50.8577309,44.2362833 49.3162166,40.5050665 47.0945176,40.5050665 C44.7706573,40.5050665 43.7157024,44.0526521 42.3671894,47.0816293 L35.2768657,62.9822654 C33.5066917,66.8542155 29.7426761,69.2618434 25.5595848,69.2618434 C20.9833592,69.2618434 16.9765097,66.1688317 15.8158276,61.7401912 L1.22127475,6.05188971 C0.661526421,3.91609651 1.93845507,1.73080585 4.07332574,1.17081565 C4.41315065,1.08163103 4.75386702,1.03908997 5.08941292,1.03917915" id="Fill-9"></path>
                    </g>
                    <g id="Group-14" transform="translate(0.445730, 0.507371)">
                        <mask id="mask-2" fill="white">
                            <use xlink:href="#path-1"></use>
                        </mask>
                        <g id="Clip-13"></g>
                        <path d="M3.42392319,0.14875994 C2.26021007,0.453949698 1.28504095,1.1942712 0.677956046,2.23327198 L0.677956046,2.23327198 C0.0708711449,3.27236195 -0.0954754669,4.48562947 0.209582467,5.64984546 L0.209582467,5.64984546 L14.8042244,61.338147 C16.0233864,65.9899274 20.2320627,69.238923 25.0389984,69.238923 L25.0389984,69.238923 C27.1936595,69.238923 29.2817284,68.6272057 31.077309,67.4701245 L31.077309,67.4701245 C32.8789516,66.3091191 34.310727,64.6467179 35.2197498,62.6583468 L35.2197498,62.6583468 L42.3102518,46.7574432 C42.5234001,46.2785218 42.7311105,45.7828337 42.9318675,45.3033772 L42.9318675,45.3033772 C43.9703304,42.8239557 44.9512048,40.482146 46.5739312,40.482146 L46.5739312,40.482146 C48.3640739,40.482146 49.8462169,43.8396793 50.9285396,46.291186 L50.9285396,46.291186 L51.0956885,46.6692396 L54.8582777,55.3710718 L54.8707582,55.393368 C55.0190081,55.6594949 55.2067498,56.1059531 55.4239988,56.6228671 L55.4239988,56.6228671 C56.6883579,59.6293697 59.3188808,65.8853138 66.201405,65.9149231 L66.201405,65.9149231 L66.250168,65.9150123 C69.7628807,65.9150123 72.7917975,64.2370037 75.0093957,61.0622989 L75.0093957,61.0622989 C76.6850749,58.6635003 77.4342586,56.0800895 77.5885705,55.2570939 L77.5885705,55.2570939 L80.1576718,45.5085018 C82.4469435,36.3883938 84.6303097,29.6761811 91.9083751,26.3601187 L91.9083751,26.3601187 C93.8751162,25.4924416 95.6905764,25.3280744 98.3528354,25.3280744 L98.3528354,25.3280744 C99.1650454,25.3280744 100.039301,25.3435925 101.051555,25.361697 L101.051555,25.361697 C101.926435,25.3773043 102.917918,25.3949628 103.988117,25.4037029 L103.988117,25.4037029 L109.757206,25.5372123 C110.295559,25.5372123 110.811983,25.8069066 111.138614,26.2586266 L111.138614,26.2586266 C112.531254,28.184836 114.99962,29.3349608 117.741309,29.3349608 L117.741309,29.3349608 C120.33127,29.3349608 122.759788,28.062118 124.237652,25.9302489 L124.237652,25.9302489 C125.746004,23.7541442 126.054004,21.0169792 125.082757,18.4204582 L125.082757,18.4204582 C124.340437,16.4361005 122.785284,14.8655594 120.816046,14.1115927 L120.816046,14.1115927 C119.803971,13.7239963 118.76952,13.5275226 117.741219,13.5275226 L117.741219,13.5275226 C115.158925,13.5275226 112.734596,14.7955495 111.256198,16.9196595 L111.256198,16.9196595 C110.993038,17.2975347 110.576994,17.5237961 110.14205,17.5254906 L110.14205,17.5254906 L104.002558,17.3920704 C103.318897,17.3885031 102.649588,17.3858275 101.994721,17.3858275 L101.994721,17.3858275 C96.6242926,17.3858275 91.4791366,17.5271851 87.5611658,19.2332868 L87.5611658,19.2332868 C77.663275,23.5428659 75.2392144,31.4372206 72.8949395,39.0716021 L72.8949395,39.0716021 C72.3666598,40.7918842 71.8205508,42.5707606 71.1989351,44.2538526 L71.1989351,44.2538526 L71.1953692,44.2633062 L67.7134119,54.9891833 L67.707974,55.0071094 L67.704319,55.0207546 C67.6747225,55.1326813 67.3812536,56.114604 66.1945408,56.114604 L66.1945408,56.114604 C65.511236,56.114604 65.2355963,55.7979986 64.6411701,54.8957178 L64.6411701,54.8957178 L57.067942,39.0627728 C53.9562975,32.7741872 50.9687445,28.58581 46.502436,28.58581 L46.502436,28.58581 C44.4428938,28.58581 42.6775337,29.4701647 40.9466731,31.368816 L40.9466731,31.368816 C39.3458767,33.1248611 37.8151491,35.687581 36.0119019,38.9905333 L36.0119019,38.9905333 L27.1370517,54.8512147 C26.4484873,55.9883186 26.1012632,56.1705227 25.3435214,56.1705227 L25.3435214,56.1705227 C24.628748,56.1705227 24.0030316,55.6874097 23.8216193,54.995783 L23.8216193,54.995783 L8.92093879,3.35824673 C8.39961243,1.3809346 6.6109852,0.000445923083 4.56882647,0.000445923083 L4.56882647,0.000445923083 C4.18425022,0.000445923083 3.7991391,0.0503893083 3.42392319,0.14875994" id="Fill-12" mask="url(#mask-2)"></path>
                    </g>
                    <path d="M5.01472632,8.02661549e-05 L5.01463718,8.02661549e-05 C4.58673592,-8.91846157e-06 4.1582998,0.055463913 3.74091778,0.164982622 C1.06813959,0.865973708 -0.536400963,3.61187887 0.164465629,6.28590122 L14.7589293,61.9742027 C16.0366603,66.8493014 20.4470741,70.2540133 25.4847199,70.2540133 C27.7370851,70.2540133 29.9200947,69.6143813 31.797868,68.4044136 C33.6812575,67.1907893 35.1776639,65.4538297 36.1251086,63.3812684 L36.1271589,63.3768984 L36.129031,63.3726175 L43.2193548,47.4719814 C43.4351774,46.9873522 43.6438685,46.4889886 43.8458735,46.0069457 C44.7744192,43.7899053 45.7345227,41.4973256 47.0195636,41.4973256 C47.5882265,41.4973256 48.231059,42.030828 48.9301427,43.0830281 C49.6720165,44.1997087 50.3297364,45.6895377 50.9099883,47.0040297 C50.9664178,47.1319205 51.0222232,47.2582059 51.0773155,47.3824401 L54.8279591,56.0567142 L54.8482844,56.1035362 L54.8730671,56.1481285 C55.0077668,56.3897296 55.1904272,56.8240587 55.4018817,57.3270599 C56.0508653,58.8704889 57.0315614,61.2027558 58.737996,63.1927321 C60.8530762,65.6592219 63.513374,66.9166358 66.6449871,66.9301027 L66.6958004,66.9302811 C70.3816348,66.9302811 73.5543443,65.1772682 75.871073,61.8605815 C77.5849066,59.4073803 78.3611017,56.7528894 78.5294986,55.876918 L81.0927163,46.1511572 L81.0943209,46.1453602 L81.0957473,46.1395632 C82.1789614,41.8242764 83.2147499,37.9881785 84.9258201,34.7420368 C86.7857642,31.2134475 89.213034,28.8579926 92.5645706,27.3296358 C94.4468904,26.5004864 96.208328,26.3432539 98.7986461,26.3432539 C99.6063097,26.3432539 100.478426,26.358772 101.488184,26.3767873 C102.362083,26.3923946 103.352139,26.4100532 104.429381,26.4189717 L110.179393,26.5521243 L110.19116,26.5523918 L110.202928,26.5523918 C110.578946,26.5523918 110.941503,26.7434253 111.173105,27.0635981 C112.660864,29.1215331 115.282918,30.3501404 118.187119,30.3501404 C120.943427,30.3501404 123.527862,28.9956936 125.100399,26.7270153 C126.705029,24.4121394 127.034423,21.5044534 126.003895,18.7498081 C125.210494,16.6291763 123.548187,14.9506326 121.443269,14.1446713 C120.373071,13.7347788 119.277465,13.5270678 118.187119,13.5270678 C115.438745,13.5270678 112.85859,14.8765202 111.28534,17.1368151 C111.118101,17.3772569 110.85931,17.5218251 110.591872,17.5249466 L104.467625,17.3918831 L104.459245,17.3917048 L104.450954,17.3917048 C103.634019,17.3873347 103.01383,17.3854619 102.439907,17.3854619 C97.0142087,17.3854619 91.8119992,17.5299409 87.8042583,19.2749271 C83.2674353,21.2503664 79.8619653,24.1624225 77.3932425,28.1774247 C75.2306474,31.694866 74.0231636,35.6271049 72.8554389,39.4296694 C72.3292986,41.1433518 71.7851509,42.9152718 71.1684382,44.5851646 L71.1614848,44.6041609 L71.1552446,44.623514 L67.6764074,55.3397591 L67.6590239,55.3931807 L67.6568844,55.4059341 C67.6013464,55.5882274 67.3767874,56.1141491 66.6402624,56.1141491 C66.2485544,56.1141491 66.1137655,56.035845 65.5297695,55.1523822 L57.974638,39.3570732 L57.9716962,39.3509194 L57.9687543,39.3448549 C56.1467865,35.6627788 54.5633735,33.1706039 52.9859334,31.5017813 C51.1309815,29.5392738 49.1559497,28.5853552 46.9482467,28.5853552 C44.7357298,28.5853552 42.8511814,29.5222396 41.0173571,31.533977 C39.3833092,33.3265878 37.8346632,35.9165982 36.0126953,39.2537082 L27.1440853,55.1030631 C26.5283532,56.1182516 26.314046,56.1701571 25.789243,56.1701571 C25.3050905,56.1701571 24.88129,55.8429387 24.7584467,55.3744519 L24.7551483,55.3623228 L24.7517607,55.3502829 L9.85598326,3.73013767 C9.27403756,1.53343138 7.2851882,0.000258635388 5.01472632,8.02661549e-05 M5.01454803,1.01571468 C6.78721811,1.01589305 8.40664606,2.20481317 8.87724829,4.00054542 L23.7764133,55.6319279 C24.0162163,56.5468729 24.8439378,57.1857915 25.789243,57.1857915 C26.8361747,57.1857915 27.3127497,56.7862444 28.0214612,55.6141802 L36.9006796,39.7459181 C40.4748139,33.1990538 42.9553932,29.6009004 46.9482467,29.6009004 C50.8979536,29.6009004 53.7619501,33.1324329 57.0588401,39.7955047 L64.6440139,55.6534214 C65.2633118,56.5955677 65.6627754,57.1297835 66.6402624,57.1297835 C68.2789459,57.1297835 68.6419488,55.6534214 68.6419488,55.6534214 L72.1207859,44.9371762 C75.4406756,35.9475453 76.2733001,25.4033372 88.2094273,20.2061929 C91.8746689,18.6103234 96.5843463,18.4010963 102.439907,18.4010963 C103.093883,18.4010963 103.763014,18.4036826 104.445695,18.4073392 L110.583047,18.5406702 C111.200383,18.5406702 111.765659,18.2240648 112.11841,17.7172286 C113.453818,15.7986892 115.672932,14.5427022 118.187119,14.5427022 C119.120746,14.5427022 120.095648,14.7160771 121.080356,15.0931497 C122.912843,15.7949434 124.3653,17.2673814 125.053062,19.1059223 C127.023815,24.3737009 123.184471,29.334506 118.187119,29.334506 C115.720982,29.334506 113.338285,28.3254712 111.995656,26.4682908 C111.577382,25.8899285 110.916542,25.5367574 110.202928,25.5367574 L104.445695,25.4034264 C102.165694,25.3846977 100.344439,25.3275303 98.7986461,25.3275303 C96.0541053,25.3275303 94.1783823,25.5076833 92.1493281,26.4028292 C84.39861,29.9342725 82.2554488,37.3494383 80.1110395,45.8921651 L77.5385507,55.6534214 C77.2985694,56.9729078 74.7273286,65.9145575 66.6958004,65.9145575 C66.6805564,65.9145575 66.6645992,65.9145575 66.6493553,65.9144683 C58.9068387,65.8812024 56.8089636,57.5357519 55.7597141,55.6534214 L52.0072876,46.9749556 C50.782866,44.2127296 49.2412626,40.481602 47.0195636,40.481602 C44.6957924,40.481602 43.6408375,44.0291877 42.2923245,47.0581648 L35.2020008,62.9588009 C33.4318268,66.830751 29.6678112,69.2384681 25.4847199,69.2384681 C20.9084052,69.2384681 16.9016448,66.1453672 15.7408735,61.7167267 L1.14640986,6.02842523 C0.586661531,3.89263204 1.86359018,1.70734138 3.99846085,1.14735117 C4.33828576,1.05816656 4.67900213,1.01571468 5.01454803,1.01571468" id="Fill-15" fill="#FFFFFF"></path>
                </g>
                <text id="Beta" font-family="DINAlternate-Bold, DIN Alternate" font-size="11" font-weight="bold" fill="#FFFFFF">
                    <tspan x="105.533553" y="82.2550177">Beta</tspan>
                </text>
            </g>
        </g>
    </g>
</svg>