<?xml version="1.0" encoding="UTF-8"?>
<svg width="91px" height="51px" viewBox="0 0 91 51" version="1.1" xmlns="http://www.w3.org/2000/svg" xmlns:xlink="http://www.w3.org/1999/xlink">
    <!-- Generator: Sketch 43.1 (39012) - http://www.bohemiancoding.com/sketch -->
    <title>logo</title>
    <desc>Created with Sketch.</desc>
    <defs>
        <polygon id="path-1" points="90.4749857 50.2699217 9.26519078e-06 50.2699217 9.26519078e-06 0.0202168357 90.4749857 0.0202168357"></polygon>
    </defs>
    <g id="Way" stroke="none" stroke-width="1" fill="none" fill-rule="evenodd">
        <g id="Search-(Concept-2)" transform="translate(-33.000000, -57.000000)">
            <g id="logo" transform="translate(33.000000, 57.000000)">
                <g id="Page-1">
                    <path d="M18.2135533,49.9591489 C14.7780852,49.9591489 11.7701823,47.6354 10.8989447,44.3081414 L0.468399054,4.47649294 C0.0183418447,2.7576539 1.04883718,0.992540375 2.76562803,0.541854546 C3.03371789,0.471534771 3.30906323,0.435793728 3.58390068,0.435793728 C5.04333978,0.435793728 6.32175475,1.42310371 6.69425091,2.83741744 L17.3435491,39.7717169 C17.473132,40.2664252 17.9203595,40.6119946 18.4312176,40.6119946 C18.9726938,40.6119946 19.2208311,40.4816705 19.7130427,39.6681986 L26.0557803,28.3237592 C27.3445705,25.9612908 28.4384787,24.1283274 29.5825223,22.8723059 C30.819581,21.5142915 32.0812358,20.8817041 33.5531544,20.8817041 C36.7452013,20.8817041 38.8803429,23.8774864 41.104219,28.3755547 L46.5165868,39.7000895 C46.9414676,40.3454623 47.1384537,40.5719675 47.6267473,40.5719675 C48.5034991,40.5719675 48.6972929,39.8243114 48.7050562,39.7924932 L48.7082486,39.7796351 L51.2008676,32.0951657 L51.2033345,32.0884097 C51.6475873,30.8844742 52.0380045,29.6121076 52.4155069,28.3817294 C54.0909416,22.9211955 55.8234043,17.274692 62.8972037,14.192245 C65.6975274,12.9719644 69.3748205,12.8709161 73.2133304,12.8709161 C73.681091,12.8709161 74.159372,12.8727322 74.6476656,12.8753474 L79.0356327,12.9706568 C79.3464573,12.9694219 79.6437141,12.8076428 79.831631,12.5374056 C80.8883186,11.0181208 82.6208538,10.1111555 84.466502,10.1111555 C85.2013366,10.1111555 85.9406697,10.2516497 86.6639681,10.5288607 C88.0713129,11.0682454 89.1827068,12.1916183 89.7132272,13.6108719 C90.4075038,15.4680258 90.1873726,17.4258649 89.1092814,18.9823438 C88.0531742,20.5071496 86.3175191,21.4175292 84.466502,21.4175292 C82.5070154,21.4175292 80.7429914,20.5949767 79.7476126,19.2172031 C79.5141313,18.8940808 79.1450452,18.7011373 78.7603599,18.7011373 L74.6373628,18.6056826 C73.8724179,18.5995078 73.1638481,18.586795 72.5387162,18.5756078 C71.8152726,18.5627497 71.1905035,18.5515625 70.610138,18.5515625 C68.7073167,18.5515625 67.4097473,18.6691738 66.0041438,19.2897748 C60.8025476,21.6616144 59.2421848,26.4626098 57.6060748,32.9858586 L55.7697863,39.9588488 C55.6596482,40.547559 55.1241214,42.3951239 53.926605,44.1108392 C52.3417187,46.3815578 50.1769748,47.5817158 47.6665073,47.5817158 L47.631681,47.5816432 C42.7128307,47.5605037 40.8327916,43.0858268 39.9292671,40.9354074 C39.7739999,40.5657201 39.6398462,40.246448 39.5338437,40.0561923 L39.524992,40.0402105 L36.8358947,33.8160387 L36.716397,33.5456563 C35.9428907,31.7920932 34.8835911,29.3906148 33.6042329,29.3906148 C32.4445176,29.3906148 31.7434934,31.0657219 31.0013307,32.8391169 C30.8578174,33.1820711 30.7094429,33.5366484 30.5570779,33.8790941 L25.4896354,45.2523733 C24.162899,48.1567689 21.3754175,49.9591489 18.2135533,49.9591489" id="Fill-1" fill="#FFFFFF"></path>
                    <g id="Group-5" transform="translate(0.000000, 0.052449)">
                        <mask id="mask-2" fill="white">
                            <use xlink:href="#path-1"></use>
                        </mask>
                        <g id="Clip-4"></g>
                        <path d="M3.58391519,0.0202169353 L3.58391519,0.0202169353 C3.27809685,0.0201442909 2.97184319,0.0598081308 2.6736431,0.138118789 C0.763348686,0.639510407 -0.38337938,2.60359693 0.11753872,4.51625122 L10.5479392,44.3477544 C11.4611135,47.8346854 14.6133278,50.2699435 18.2135678,50.2699435 C19.8232679,50.2699435 21.3834855,49.8124291 22.725531,48.9470164 C24.071567,48.0789159 25.1409517,46.8365514 25.8181054,45.3541699 L25.8194839,45.3510462 L25.820935,45.3479225 L30.8883049,33.9748612 C31.0424838,33.6282748 31.1916564,33.2717361 31.3359678,32.9269658 C31.9996262,31.3411386 32.6858492,29.7014093 33.6042474,29.7014093 C34.0106267,29.7014093 34.4700435,30.0830103 34.9697281,30.8356063 C35.4998858,31.6343314 35.9699681,32.699952 36.3846186,33.6401885 C36.4250316,33.7317204 36.4649367,33.822308 36.5044065,33.91137 L39.1847247,40.1152014 L39.1992356,40.1486904 L39.2170115,40.1805813 C39.3132191,40.3533297 39.4437452,40.6640298 39.5949493,41.0237648 C40.0587194,42.1277417 40.7595984,43.7960202 41.9791714,45.2192692 C43.4907774,46.9834384 45.392075,47.8828486 47.6301719,47.8924377 L47.6665218,47.892583 C50.3006226,47.892583 52.5681767,46.6385954 54.223949,44.2664653 C55.448746,42.5116673 56.0035722,40.6128155 56.123868,39.9864028 L57.9558033,33.0300482 L57.9568916,33.0259801 L57.9579074,33.0217667 C58.7319942,29.9353243 59.4722705,27.1914728 60.695181,24.8696127 C62.0244569,22.3457284 63.7593864,20.660887 66.1549271,19.5676614 C67.5000925,18.9748105 68.7588451,18.862357 70.6099348,18.862357 C71.187108,18.862357 71.8103534,18.8734716 72.5320557,18.8863297 C73.1566071,18.8975169 73.8644514,18.910157 74.6344026,18.9164771 L78.7436142,19.0117865 L78.7520306,19.0119318 L78.7603744,19.0119318 C79.0290447,19.0119318 79.2882829,19.1486486 79.4537077,19.3776237 C80.5169978,20.8495445 82.3909423,21.7283237 84.4665165,21.7283237 C86.4363783,21.7283237 88.2834776,20.759538 89.4073509,19.1368075 C90.554224,17.4810238 90.7895191,15.4013601 90.0530157,13.4310988 C89.4860002,11.9142838 88.2980611,10.7137625 86.793638,10.1372566 C86.0287657,9.84406383 85.2458272,9.69550604 84.4665165,9.69550604 C82.5023139,9.69550604 80.6582619,10.6607321 79.5338807,12.2774331 C79.4143105,12.4493824 79.2293684,12.552828 79.0381866,12.5550074 L74.6614655,12.4598432 L74.655516,12.4596979 L74.6494939,12.4596253 C74.0655006,12.4565742 73.6223361,12.4552666 73.2125468,12.4552666 C69.3347123,12.455194 65.6167159,12.5586396 62.7523989,13.806743 C59.5099264,15.2196038 57.0760768,17.3024639 55.3118351,20.1743874 C53.766201,22.6901355 52.9032346,25.5026359 52.0686371,28.22266 C51.6926583,29.4483163 51.3037648,30.7156704 50.8629946,31.9100169 L50.8579883,31.923674 L50.8534899,31.9374038 L48.3673283,39.6024046 L48.3549214,39.6405429 L48.3533978,39.6496961 C48.3137829,39.7800928 48.1531466,40.1562454 47.6267618,40.1562454 C47.3468455,40.1562454 47.2505654,40.1003093 46.8330852,39.468303 L41.4335596,28.1706466 L41.4314555,28.166288 L41.4293514,28.1620019 C40.1272111,25.5282794 38.9956469,23.7457312 37.868291,22.5520385 C36.5424978,21.1484035 35.1310899,20.4660547 33.5531689,20.4660547 C30.1633377,20.4660547 28.1752646,23.6285558 25.7377147,28.096622 L19.3994029,39.4330705 C18.9594308,40.1592965 18.8061952,40.1963451 18.4312321,40.1963451 C18.0852185,40.1963451 17.7822298,39.9622849 17.6944385,39.6271763 L17.6921893,39.6185316 L17.6897224,39.6098869 L7.04383428,2.68800971 C6.62795037,1.11685673 5.20660251,0.0203622241 3.58391519,0.0202169353 M3.58384263,0.746588246 C4.85072139,0.746733534 6.00811501,1.59710883 6.3444789,2.88160703 L16.9926888,39.8114025 C17.1639906,40.4658559 17.7556022,40.9227891 18.4312321,40.9227891 C19.1794169,40.9227891 19.5200615,40.6369334 20.0265663,39.7986897 L26.3723512,28.4487294 C28.9267868,23.7660716 30.69959,21.1924986 33.5531689,21.1924986 C36.3760571,21.1924986 38.4228271,23.7184169 40.7790431,28.4841798 L46.2001175,39.8268031 C46.6427015,40.5005799 46.928132,40.8826894 47.6267618,40.8826894 C48.7979408,40.8826894 49.0573967,39.8268031 49.0573967,39.8268031 L51.5435583,32.1618024 C53.9163168,25.7319016 54.5113384,18.1901058 63.0419649,14.4728194 C65.6614822,13.3312854 69.0276605,13.1817106 73.2125468,13.1817106 C73.6800172,13.1817106 74.1577903,13.1835267 74.6457211,13.1860692 L79.0320194,13.281524 C79.4731524,13.281524 79.8772824,13.0550914 80.1293377,12.6925232 C81.0837231,11.3202706 82.6696977,10.42195 84.4665165,10.42195 C85.1338026,10.42195 85.830546,10.545954 86.5343273,10.81561 C87.8439408,11.3175827 88.8819818,12.3708538 89.3735403,13.6857174 C90.7819735,17.4535643 88.0380973,21.0018797 84.4665165,21.0018797 C82.7039435,21.0018797 81.0011558,20.2802303 80.0415464,18.9518549 C79.7426934,18.5381451 79.2704344,18.2854879 78.7603744,18.2854879 L74.6457211,18.1901058 C73.0162862,18.1767392 71.7147262,18.1359131 70.6099348,18.1359131 C68.6484167,18.1359131 67.3078949,18.2647116 65.8576703,18.9049993 C60.3184041,21.4308449 58.7867005,26.7346122 57.2541987,32.8448776 L55.4155884,39.8268031 C55.2441415,40.7705264 53.4064744,47.166139 47.6665218,47.166139 C47.6556386,47.166139 47.644175,47.1660664 47.6332917,47.1659937 C42.09983,47.1423117 40.6004858,41.1731217 39.8507048,39.8268031 L37.1687905,33.6194122 C36.29378,31.6437025 35.1920359,28.9749654 33.6042474,28.9749654 C31.9433963,28.9749654 31.1894797,31.5123615 30.2256622,33.6789079 L25.1582923,45.0519692 C23.8932274,47.8213915 21.2031144,49.5434995 18.2135678,49.5434995 C14.9429441,49.5434995 12.0793527,47.3311871 11.249834,44.1635282 L0.81928841,4.33195238 C0.419293989,2.80438604 1.33188783,1.24129658 2.85756943,0.840808027 C3.10048279,0.777026247 3.34397658,0.746588246 3.58384263,0.746588246" id="Fill-3" fill="#FFFFFF" mask="url(#mask-2)"></path>
                    </g>
                </g>
            </g>
        </g>
    </g>
</svg>