<?xml version="1.0" encoding="UTF-8"?>
<svg width="28px" height="28px" viewBox="0 0 28 28" version="1.1" xmlns="http://www.w3.org/2000/svg" xmlns:xlink="http://www.w3.org/1999/xlink">
    <!-- Generator: Sketch 43.1 (39012) - http://www.bohemiancoding.com/sketch -->
    <title>refresh</title>
    <desc>Created with Sketch.</desc>
    <defs>
        <polygon id="path-1" points="27.0400904 11.3523996 1.25000001e-05 11.3523996 1.25000001e-05 0.0172131322 27.0400904 0.0172131322 27.0400904 11.3523996"></polygon>
    </defs>
    <g id="Way" stroke="none" stroke-width="1" fill="none" fill-rule="evenodd">
        <g id="Home-(Concept-2)" transform="translate(-20.000000, -546.000000)">
            <g id="left-Icons" transform="translate(18.000000, 489.000000)">
                <g id="refresh" transform="translate(2.000000, 57.000000)">
                    <path d="M27.9892313,3.10174851e-05 L27.9892313,10.9305928 L16.8054188,10.9305928 C18.2100438,9.56135691 19.5630438,8.24236937 20.9517313,6.88864225 C20.6876063,6.65576297 20.4456063,6.41847921 20.1796688,6.21146852 C15.4729188,2.54836556 8.19148125,3.72417639 5.20735625,9.57550088 C5.06729375,9.85019173 4.98710625,10.1606147 4.81754375,10.4138415 C4.22679375,11.2962889 3.03766875,11.5796026 2.10704375,11.0867968 C1.16648125,10.588656 0.73573125,9.47128213 1.13466875,8.48430576 C1.76591875,6.92245131 2.68560625,5.53913351 3.85848125,4.3271563 C6.06454375,2.04768132 8.73591875,0.639115281 11.8884188,0.145937267 C12.2133563,0.0950685919 12.5389188,0.0485423642 12.8642313,3.10174851e-05 L15.1142313,3.10174851e-05 C15.1822938,0.0183313337 15.2494188,0.046805385 15.3186688,0.0534431269 C18.5246688,0.363555943 21.2922313,1.62745643 23.6366063,3.81456134 C23.7167313,3.88925144 23.8051688,3.95513258 23.8897938,4.0252321 C23.9436688,3.98019471 23.9772938,3.95600107 24.0064188,3.92721684 C25.2737313,2.67541318 26.5409188,1.42348544 27.8064188,0.169944801 C27.8551063,0.121805664 27.8869813,0.0570411551 27.9267313,3.10174851e-05 L27.9892313,3.10174851e-05 Z" id="Fill-1" fill="#FFFFFF"></path>
                    <g id="Group-5" transform="translate(0.000000, 16.438647)">
                        <mask id="mask-2" fill="white">
                            <use xlink:href="#path-1"></use>
                        </mask>
                        <g id="Clip-4"></g>
                        <path d="M4.0647,7.26425159 C2.699575,8.61952959 1.3561375,9.95334348 1.25000001e-05,11.2996884 L1.25000001e-05,0.44971011 L11.2082,0.44971011 C9.8085125,1.80815189 8.4528875,3.12378954 7.0643875,4.47131316 C7.2437625,4.6381252 7.4005125,4.79749303 7.5712,4.94060771 C9.2258875,6.32770964 11.146325,7.06648411 13.2986375,7.19737789 C16.2326375,7.37591454 18.7640125,6.43596067 20.8757625,4.41014668 C21.7825125,3.54035436 22.4931375,2.52428358 22.99595,1.37223215 C23.5097625,0.195056557 24.77095,-0.304821233 25.885575,0.233021959 C27.006075,0.773718759 27.345575,2.06373597 26.751325,3.22279735 C26.0863875,4.51976247 25.334325,5.74910948 24.3360125,6.81933678 C21.94995,9.37741082 19.0168875,10.9142031 15.5226375,11.2694154 C11.2090125,11.7078785 7.4547,10.4051442 4.28295,7.46381809 C4.2307,7.41536878 4.1777625,7.36760185 4.0647,7.26425159" id="Fill-3" fill="#FFFFFF" mask="url(#mask-2)"></path>
                    </g>
                </g>
            </g>
        </g>
    </g>
</svg>